<svg width="59" height="78" viewBox="0 0 59 78" fill="none" xmlns="http://www.w3.org/2000/svg">
<path d="M24.8367 5.30072V5.68512L25.1781 5.85596L25.5195 5.68512V5.30072L25.1781 5.12988L24.8367 5.30072ZM30.171 27.9798V28.9195L30.9818 29.3893L31.7926 28.9195V27.9798L30.9818 27.51L30.171 27.9798ZM24.1112 13.4584V12.8177L24.666 12.476L25.2207 12.8177V13.4584L24.666 13.8L24.1112 13.4584ZM44.1682 51.8121V53.3924L45.5338 54.1612L46.8994 53.3924V51.8121L45.5338 51.0433L44.1682 51.8121ZM40.5409 43.6972V42.2878L41.7358 41.6044L42.9307 42.2878V43.6972L41.7358 44.3806L40.5409 43.6972ZM35.0786 34.3864V35.5823L36.1028 36.1802L37.1269 35.5823V34.3864L36.1028 33.7884L35.0786 34.3864ZM25.9462 21.1462V20.292L26.6717 19.8649L27.3971 20.292V21.1462L26.6717 21.5733L25.9462 21.1462ZM44.1682 61.4646V61.9344L44.5523 62.148L44.9364 61.9344V61.4646L44.5523 61.2511L44.1682 61.4646Z" fill="#4F6477"/>
<path d="M41.0957 68.1274V67.8284L41.3517 67.7003L41.6078 67.8284V68.1274L41.3517 68.2556L41.0957 68.1274Z" fill="#4F6477"/>
<path d="M16.0883 14.5737V14.9581L16.4297 15.1289L16.7711 14.9581V14.5737L16.4297 14.4028L16.0883 14.5737ZM30.8963 65.6551V66.0395L31.2377 66.2103L31.5791 66.0395V65.6551L31.2377 65.4842L30.8963 65.6551ZM29.4454 59.6329V58.9069L30.0855 58.5225L30.7256 58.9069V59.6329L30.0855 60.0173L29.4454 59.6329ZM25.69 51.5607V52.6712L26.6716 53.2264L27.6531 52.6712V51.5607L26.6716 51.0055L25.69 51.5607ZM21.3799 45.923V44.6417L22.4895 44.001L23.599 44.6417V45.923L22.4895 46.5636L21.3799 45.923ZM17.5819 37.4663V38.9612L18.8621 39.6873L20.1424 38.9612V37.4663L18.8621 36.7403L17.5819 37.4663ZM15.2348 30.7608V29.8212L16.0456 29.3514L16.8564 29.8212V30.7608L16.0456 31.2306L15.2348 30.7608ZM14.8507 21.5781V22.2188L15.4055 22.5605L15.9603 22.2188V21.5781L15.4055 21.2365L14.8507 21.5781Z" fill="#4F6477"/>
<path d="M5.50505 30.8034V31.1878L5.84644 31.3586L6.18783 31.1878V30.8034L5.84644 30.6326L5.50505 30.8034ZM4.99292 37.0771V37.7178L5.54771 38.0595L6.10247 37.7178V37.0771L5.54771 36.7355L4.99292 37.0771ZM5.29167 44.8504V43.9108L6.1025 43.441L6.9133 43.9108V44.8504L6.1025 45.3202L5.29167 44.8504ZM6.82794 49.9756V51.3851L8.02283 52.0684L9.21771 51.3851V49.9756L8.02283 49.2923L6.82794 49.9756ZM10.3273 56.9374V55.7415L11.3515 55.1436L12.3756 55.7415V56.9374L11.3515 57.5353L10.3273 56.9374ZM14.7227 61.2084V62.148L15.5336 62.6178L16.3444 62.148V61.2084L15.5336 60.7386L14.7227 61.2084ZM19.4169 66.2956V65.6549L19.9717 65.3132L20.5265 65.6549V66.2956L19.9717 66.6373L19.4169 66.2956ZM23.5137 70.0968V70.3958L23.7697 70.5239L24.0258 70.3958V70.0968L23.7697 69.9687L23.5137 70.0968Z" fill="#4F6477"/>
<path d="M31.8779 2.31098V2.69537L32.2193 2.86621L32.5607 2.69537V2.31098L32.2193 2.14014L31.8779 2.31098ZM33.7129 8.89303V9.53368L34.2677 9.87536L34.8225 9.53368V8.89303L34.2677 8.55135L33.7129 8.89303ZM36.7428 16.0637V14.8678L37.767 14.2698L38.7912 14.8678V16.0637L37.767 16.6616L36.7428 16.0637ZM42.1625 20.8472V22.4275L43.5281 23.1963L44.8937 22.4275V20.8472L43.5281 20.0784L42.1625 20.8472ZM48.649 28.4069V27.3819L49.5452 26.8693L50.4413 27.3819V28.4069L49.5452 28.9194L48.649 28.4069ZM53.5566 32.8915V33.3186L53.9407 33.5321L54.3247 33.3186V32.8915L53.9407 32.6779L53.5566 32.8915Z" fill="#4F6477"/>
<path d="M28.9332 0.00467925C28.6345 -0.038031 28.3784 0.21823 28.3358 0.517202C25.7753 11.8354 26.7995 20.3347 40.8821 34.8562C60.5123 55.1008 44.1253 70.6046 35.5477 76.157C35.4197 76.2424 35.2064 76.4986 35.3344 76.8403C35.4624 77.2247 35.8465 77.2247 35.9745 77.2247C55.6048 72.4412 68.2364 49.1214 48.9049 31.8238C38.2363 22.2567 30.1281 16.5335 29.4453 0.645332C29.4453 0.303651 29.2319 0.0473894 28.9332 0.00467925Z" fill="#4F6477"/>
<path d="M23.855 1.71793C23.599 1.54708 23.2575 1.67522 23.0868 1.93148C14.808 14.9581 16.4723 28.6253 24.3671 39.3883C38.407 58.4798 34.1396 70.9038 30.8536 76.6269C30.7683 76.7551 30.6829 77.0967 30.939 77.3103C31.195 77.5666 31.5364 77.4384 31.6644 77.353C41.1809 69.6225 46.1738 54.0379 33.2861 36.8257C26.2448 27.4295 18.2646 19.5708 24.111 2.444C24.1964 2.23045 24.1111 1.88877 23.855 1.71793Z" fill="#4F6477"/>
<path d="M17.3686 6.80036C17.1126 6.62952 16.7712 6.75765 16.6005 6.9712C6.9134 20.8093 5.97456 35.4542 10.1566 46.8625C16.0457 60.9142 27.3118 67.7004 28.08 76.7977C28.1226 77.0112 28.208 77.3956 28.6347 77.3956C29.0615 77.3956 29.1895 77.054 29.2322 76.8831C30.9392 63.0023 22.4042 53.8196 18.1368 46.1318C12.9305 35.8813 9.7299 24.6532 17.6247 7.48372C17.6674 7.27017 17.582 6.92849 17.3686 6.80036Z" fill="#4F6477"/>
<path d="M24.6612 74.9607C25.2385 76.1576 24.1258 77.3013 22.8304 77.0051C12.721 74.6934 0 66.6403 0 48.2721C0 42.7625 1.28024 37.381 2.77384 32.6829C2.85919 32.3839 3.1579 32.1704 3.45662 32.2558C3.71267 32.2985 3.92604 32.5548 3.88337 32.8537C2.30441 43.6594 3.32861 56.0407 13.0157 63.8567C18.7007 68.4294 22.932 71.376 24.6612 74.9607Z" fill="#4F6477"/>
<path d="M43.1011 15.513C38.7009 10.5763 36.2481 6.02357 35.2522 2.95987C35.0146 2.22884 35.7196 1.63 36.4065 1.975C44.1026 5.84032 51.3226 17.2671 55.4767 29.1803C55.5194 29.2657 55.5194 29.6074 55.178 29.6928C54.922 29.7782 54.7086 29.5647 54.6659 29.4793C52.3615 24.5676 47.8807 20.8518 43.1011 15.513Z" fill="#4F6477"/>
</svg>
